<svg xmlns="http://www.w3.org/2000/svg" viewBox="0 0 24 24" fill="currentColor" class="w-6 h-6">
  <path fill-rule="evenodd" d="M11.078 2.25c-.917 0-1.699.663-1.946 1.55l-.299 1.202c-.584.236-1.13.55-1.636.936l-1.09-1.09a2.002 2.002 0 0 0-2.831 0l-1.555 1.555a2.002 2.002 0 0 0 0 2.831l1.09 1.09c-.386.506-.7 1.052-.936 1.636l-1.202.299c-.887.247-1.55.986-1.55 1.946v2.144c0 .96.663 1.699 1.55 1.946l1.202.299c.236.584.55 1.13.936 1.636l-1.09 1.09a2.002 2.002 0 0 0 0 2.831l1.555 1.555a2.002 2.002 0 0 0 2.831 0l1.09-1.09c.506.386 1.052.7 1.636.936l.299 1.202c.247.887.986 1.55 1.946 1.55h2.144c.96 0 1.699-.663 1.946-1.55l.299-1.202c.584-.236 1.13-.55 1.636-.936l1.09 1.09a2.002 2.002 0 0 0 2.831 0l1.555-1.555a2.002 2.002 0 0 0 0-2.831l-1.09-1.09c.386-.506.7-1.052.936-1.636l1.202-.299c.887-.247 1.55.986-1.55-1.946v-2.144c0-.96-.663-1.699-1.55-1.946l-1.202-.299a4.94 4.94 0 0 0-.936-1.636l1.09-1.09a2.002 2.002 0 0 0 0-2.831l-1.555-1.555a2.002 2.002 0 0 0-2.831 0l-1.09 1.09a4.94 4.94 0 0 0-1.636-.936l-.299-1.202c-.247-.887-.986-1.55-1.946-1.55h-2.144ZM12 8.25a3.75 3.75 0 1 0 0 7.5 3.75 3.75 0 0 0 0-7.5Z" clip-rule="evenodd" />
</svg>
